<svg width="8100" height="8200" viewBox="0 0 8100 8200" fill="none" xmlns="http://www.w3.org/2000/svg">
<mask id="path-1-outside-1_197_8" maskUnits="userSpaceOnUse" x="0" y="-1" width="7070" height="8202" fill="black">
<rect fill="white" y="-1" width="7070" height="8202"/>
<path d="M6928.43 1271.57C6369.02 712.163 5656.28 331.2 4880.36 176.859C4104.44 22.518 3300.17 101.731 2569.27 404.482C1838.36 707.233 1213.65 1219.92 774.121 1877.72C334.596 2535.52 99.9999 3308.88 100 4100C100 4891.13 334.596 5664.48 774.122 6322.28C1213.65 6980.08 1838.36 7492.77 2569.27 7795.52C3300.17 8098.27 4104.44 8177.48 4880.36 8023.14C5656.29 7868.8 6369.02 7487.84 6928.43 6928.43L4100 4100L6928.43 1271.57Z"/>
</mask>
<path d="M6928.43 1271.57C6369.02 712.163 5656.28 331.2 4880.36 176.859C4104.44 22.518 3300.17 101.731 2569.27 404.482C1838.36 707.233 1213.65 1219.92 774.121 1877.72C334.596 2535.52 99.9999 3308.88 100 4100C100 4891.13 334.596 5664.48 774.122 6322.28C1213.65 6980.08 1838.36 7492.77 2569.27 7795.52C3300.17 8098.27 4104.44 8177.48 4880.36 8023.14C5656.29 7868.8 6369.02 7487.84 6928.43 6928.43L4100 4100L6928.43 1271.57Z" fill="#FF007A"/>
<path d="M6928.43 1271.57C6369.02 712.163 5656.28 331.2 4880.36 176.859C4104.44 22.518 3300.17 101.731 2569.27 404.482C1838.36 707.233 1213.65 1219.92 774.121 1877.72C334.596 2535.52 99.9999 3308.88 100 4100C100 4891.13 334.596 5664.48 774.122 6322.28C1213.65 6980.08 1838.36 7492.77 2569.27 7795.52C3300.17 8098.27 4104.44 8177.48 4880.36 8023.14C5656.29 7868.8 6369.02 7487.84 6928.43 6928.43L4100 4100L6928.43 1271.57Z" stroke="black" stroke-width="200" mask="url(#path-1-outside-1_197_8)"/>
<circle cx="4100" cy="4100" r="2550" fill="url(#paint0_linear_197_8)" stroke="black" stroke-width="100"/>
<defs>
<linearGradient id="paint0_linear_197_8" x1="4100" y1="1600" x2="4100" y2="6600" gradientUnits="userSpaceOnUse">
<stop stop-color="#00FFD1"/>
<stop offset="1" stop-color="#005099"/>
</linearGradient>
</defs>
</svg>
